<svg width="50" height="50" viewBox="0 0 50 50" fill="none" xmlns="http://www.w3.org/2000/svg">
<path d="M30.4111 10C35.7826 10 40.0801 14.4444 40.0801 20V24.4443C40.0801 29.9999 35.7826 34.4443 30.4111 34.4443H25.3623C20.4207 34.4444 15.5862 36.333 11.8262 39.7773C11.6113 39.8885 11.2891 40 11.0742 40C10.9668 40 10.7519 39.9998 10.6445 39.8887C10.2149 39.6665 10 39.3331 10 38.8887V20C10 14.6182 14.0326 10.2788 19.168 10.0127L19.6689 10H30.4111ZM19.6689 11.5C15.1731 11.5 11.5 15.2248 11.5 20V38.0684C15.425 34.7585 20.3351 32.9444 25.3623 32.9443H30.4111C34.9069 32.9443 38.5801 29.2195 38.5801 24.4443V20C38.5801 15.2248 34.9069 11.5 30.4111 11.5H19.6689ZM21.0293 20.5879C21.7603 20.5879 22.3525 21.1811 22.3525 21.9121C22.3524 22.6429 21.7601 23.2354 21.0293 23.2354C20.2985 23.2353 19.7062 22.6429 19.7061 21.9121C19.7061 21.1812 20.2984 20.588 21.0293 20.5879ZM25.4414 20.5879C26.1723 20.588 26.7646 21.1812 26.7646 21.9121C26.7645 22.6428 26.1721 23.2352 25.4414 23.2354C24.7106 23.2354 24.1174 22.6429 24.1172 21.9121C24.1172 21.1811 24.7104 20.5879 25.4414 20.5879ZM29.8525 20.5879C30.5835 20.5879 31.1768 21.1811 31.1768 21.9121C31.1766 22.6429 30.5834 23.2354 29.8525 23.2354C29.1219 23.2351 28.5295 22.6428 28.5293 21.9121C28.5293 21.1813 29.1218 20.5881 29.8525 20.5879Z" fill="black"/>
</svg>
